<svg xmlns="http://www.w3.org/2000/svg" width="30" height="30" viewBox="0 0 30 30"><path d="M3,9H1V2A1,1,0,0,1,2,1H9V3H3Z" transform="translate(-1 -1)" fill="#fff"/><path d="M31,9H29V3H23V1h7a1,1,0,0,1,1,1Z" transform="translate(-1 -1)" fill="#fff"/><path d="M9,31H2a1,1,0,0,1-1-1V23H3v6H9Z" transform="translate(-1 -1)" fill="#fff"/><path d="M30,31H23V29h6V23h2v7A1,1,0,0,1,30,31Z" transform="translate(-1 -1)" fill="#fff"/><path d="M25.316,25.052l-4.374-1.458a2,2,0,0,1-1.313-1.434L19.352,21C21.913,19.331,23,15.81,23,12.967v-.706a7.194,7.194,0,0,0-6.785-7.29,7,7,0,0,0-7.215,7v1c0,2.839,1.087,6.36,3.648,8.029l-.277,1.16a2,2,0,0,1-1.313,1.434L6.684,25.052A1,1,0,0,0,7,27H25a1,1,0,0,0,.316-1.948Z" transform="translate(-1 -1)" fill="#fff"/></svg>