<svg xmlns="http://www.w3.org/2000/svg" width="24" height="18" viewBox="0 0 24 18"><g transform="translate(0 -6)"><path d="M23,6H1A1,1,0,0,0,0,7V23a1,1,0,0,0,1,1H23a1,1,0,0,0,1-1V7A1,1,0,0,0,23,6Z" transform="translate(0)" fill="#0f2e72"/><path d="M17.5,19H16v.125L19.167,21.5H20v-.625Z" transform="translate(-8 -6.5)" fill="red"/><path d="M.12,6.685l2.44,1.83h1.5V8.39L.913,6.03a1,1,0,0,0-.793.655Z" transform="translate(-0.06 -0.015)" fill="red"/><path d="M20,6h-.833L16,8.375V8.5h1.5L20,6.625Z" transform="translate(-8)" fill="red"/><path d="M0,20.875V21.5H.834L4,19.125V19H2.5Z" transform="translate(0 -6.5)" fill="red"/><path d="M12,9.5H7V6H5V9.5H0v2H5V15H7V11.5h5Z" fill="red"/><path d="M10.258,30l.367,1.029.987-.469-.469.987,1.03.366-1.03.367.469.987-.987-.469-.367,1.03L9.891,32.8l-.987.469.469-.987-1.03-.367,1.03-.366L8.9,30.561l.987.469Z" transform="translate(-4.172 -12)" fill="#fff"/><path d="M30.241,22.522l.175.492.472-.224-.224.472.492.175-.492.175.224.471-.472-.224-.175.492-.175-.492-.471.224.224-.471-.492-.175.492-.175-.224-.472.471.224Z" transform="translate(-14.663 -8.261)" fill="#fff"/><path d="M35.258,13.344l.175.492.472-.224-.224.472.492.175-.492.175.224.472-.472-.225-.175.492-.175-.492-.472.225.225-.472-.492-.175.492-.175-.225-.472.472.224Z" transform="translate(-17.172 -3.672)" fill="#fff"/><path d="M41.914,20.344l.175.491.471-.224-.224.472.492.175-.492.175.224.472-.471-.224-.175.492-.175-.492-.471.224.224-.472L41,21.258l.492-.175-.224-.472.471.224Z" transform="translate(-20.5 -7.172)" fill="#fff"/><path d="M35.258,31l.175.492.472-.224-.224.472.492.175-.492.175.224.472-.472-.224-.175.492-.175-.492-.472.224.225-.472-.492-.175.492-.175-.225-.472.472.224Z" transform="translate(-17.172 -12.5)" fill="#fff"/></g></svg>