<svg xmlns="http://www.w3.org/2000/svg" width="24" height="18" viewBox="0 0 24 18"><g transform="translate(0 -5.844)"><rect width="8.312" height="18" transform="translate(7.844 5.844)" fill="#e6e6e6"/><path d="M39.844,23a.99.99,0,0,1-.981,1H32V6h6.864a.99.99,0,0,1,.981,1Z" transform="translate(-15.844 -0.156)" fill="#fe0000"/><path d="M7.844,24H.981A.99.99,0,0,1,0,23V7A.99.99,0,0,1,.981,6H7.844Z" transform="translate(0 -0.156)" fill="#fe0000"/><path d="M21.35,23.934a8.241,8.241,0,0,1-.106-1.617l1.327.2c-.468-.883.707-1.311,1.311-1.825-.468-.158-.4-.1-.1-1.225-.978.31-.9.22-1.105-.265l-.688.778c-.087.1-.233.033-.2-.118.319-1.576.335-1.64.335-1.64-.621.375-.6.4-.7.2-.341-.664-.5-.991-.5-.991s-.161.327-.5.99c-.1.193-.076.172-.7-.2,0,0,.016.064.335,1.64.031.151-.116.217-.2.118-.612-.691-.687-.778-.687-.778-.208.485-.127.576-1.105.265.3,1.124.365,1.066-.1,1.225.6.514,1.78.941,1.311,1.825l1.327-.2a8.5,8.5,0,0,1-.075,1.648Z" transform="translate(-8.921 -5.811)" fill="#fe0000" fill-rule="evenodd"/></g></svg>