<svg xmlns="http://www.w3.org/2000/svg" width="24" height="18" viewBox="0 0 24 18"><g transform="translate(0 -6)"><path d="M23,6H1A1,1,0,0,0,0,7V23a1,1,0,0,0,1,1H23a1,1,0,0,0,1-1V7A1,1,0,0,0,23,6Z" fill="#3200d0"/><path d="M24,13H22.906l-.46-1-.461,1H20.894l.8.823-.295,1.2,1.05-.6,1.05.6-.3-1.2Z" transform="translate(-10.447 -3)" fill="#f6cf00"/><path d="M30.347,15.315H29.254l-.46-1-.46,1H27.241l.8.824-.3,1.2,1.05-.6,1.05.6-.3-1.2Z" transform="translate(-13.62 -4.159)" fill="#f6cf00"/><path d="M24,30.951H22.906l-.46-1-.461,1H20.894l.8.824-.295,1.2,1.05-.6,1.05.6-.3-1.2Z" transform="translate(-10.447 -11.976)" fill="#f6cf00"/><path d="M17.653,15.315H16.559l-.46-1-.461,1H14.546l.8.824-.3,1.2,1.051-.6,1.05.6-.3-1.2Z" transform="translate(-7.273 -4.159)" fill="#f6cf00"/><path d="M14.106,21.951H13.013l-.46-1-.461,1H11l.8.824-.3,1.2,1.05-.6,1.05.6-.3-1.2Z" transform="translate(-5.5 -7.476)" fill="#f6cf00"/><path d="M33.893,21.951H32.8l-.46-1-.461,1H30.787l.8.824-.3,1.2,1.05-.6,1.05.6-.3-1.2Z" transform="translate(-15.393 -7.476)" fill="#f6cf00"/><path d="M30.347,28.514H29.254l-.46-1-.46,1H27.241l.8.824-.3,1.2,1.05-.6,1.05.6-.3-1.2Z" transform="translate(-13.62 -10.758)" fill="#f6cf00"/><path d="M17.653,28.514H16.559l-.46-1-.461,1H14.546l.8.824-.3,1.2,1.051-.6,1.05.6-.3-1.2Z" transform="translate(-7.273 -10.758)" fill="#f6cf00"/></g></svg>