<svg xmlns="http://www.w3.org/2000/svg" width="36.536" height="27.402" viewBox="0 0 36.536 27.402"><rect width="12.179" height="27.402" transform="translate(12.179 0)" fill="#e6e6e6"/><path d="M44.179,32.38A1.522,1.522,0,0,1,42.657,33.9H32V6.5H42.657a1.522,1.522,0,0,1,1.522,1.522Z" transform="translate(-7.642 -6.5)" fill="#d30f25"/><path d="M12.179,33.9H1.522A1.522,1.522,0,0,1,0,32.38V8.022A1.522,1.522,0,0,1,1.522,6.5H12.179Z" transform="translate(0 -6.5)" fill="#006847"/><path d="M22.567,18.5a4.567,4.567,0,1,0,4.567,4.567A4.569,4.569,0,0,0,22.567,18.5Zm0,7.612a3.045,3.045,0,1,1,3.045-3.045A3.045,3.045,0,0,1,22.567,26.112Z" transform="translate(-4.299 -9.366)" fill="#6b422e"/></svg>