<svg xmlns="http://www.w3.org/2000/svg" width="24" height="18" viewBox="0 0 24 18"><g transform="translate(0 -6)"><path d="M23,6H1A1,1,0,0,0,0,7V23a1,1,0,0,0,1,1H23a1,1,0,0,0,1-1V7A1,1,0,0,0,23,6Z" transform="translate(0)" fill="#0f2e72"/><path d="M17.5,19H16v.125L19.167,21.5H20v-.625Z" transform="translate(-8 -6.5)" fill="red"/><path d="M.12,6.685l2.44,1.83h1.5V8.39L.913,6.03a1,1,0,0,0-.793.655Z" transform="translate(-0.06 -0.015)" fill="red"/><path d="M20,6h-.833L16,8.375V8.5h1.5L20,6.625Z" transform="translate(-8)" fill="red"/><path d="M0,20.875V21.5H.834L4,19.125V19H2.5Z" transform="translate(0 -6.5)" fill="red"/><path d="M12,9.5H7V6H5V9.5H0v2H5V15H7V11.5h5Z" fill="red"/><path d="M37.308,30.335h-.95l-.4-.865-.4.865h-.942l.692.714-.256,1.041.91-.516.91.516-.257-1.041Z" transform="translate(-17.307 -11.735)" fill="red"/><path d="M31.973,20.743h-.695l-.292-.634-.292.634H30l.507.523-.187.763.666-.378.667.378-.188-.763Z" transform="translate(-15 -7.055)" fill="red"/><path d="M42.308,20.634h-.694L41.322,20l-.293.634h-.694l.507.523-.187.762.667-.378.666.378-.188-.762Z" transform="translate(-20.167 -7)" fill="red"/><path d="M37.308,14.634h-.694L36.321,14l-.292.634h-.694l.507.523-.187.762.667-.378.667.378-.188-.762Z" transform="translate(-17.667 -4)" fill="red"/></g></svg>