<svg xmlns="http://www.w3.org/2000/svg" width="41.31" height="29.733" viewBox="0 0 41.31 29.733"><g transform="translate(-2.036)"><path d="M40.6,118.008H.712A.75.75,0,0,1,0,117.226V89.058a.75.75,0,0,1,.712-.782H40.6a.75.75,0,0,1,.712.782v28.168A.75.75,0,0,1,40.6,118.008Z" transform="translate(2.035 -88.276)" fill="#22af00"/><g transform="translate(8.972 6.26)"><path d="M102.532,169.28c.077.494.376.649.636.629a.639.639,0,0,0,.575-.6v-1.7a.154.154,0,0,1,.308,0v1.7a.616.616,0,0,0,.846.572l.154-.062c.014,1.424-.072,2.675-.074,2.7a.308.308,0,0,0,.286.33h.022a.308.308,0,0,0,.307-.286c.007-.1.1-1.471.074-2.988l.093-.037a.309.309,0,0,1,.252.011.881.881,0,0,0,1.017-.165l.056-.056a.921.921,0,0,0,.223-.947l-.263-.788a.308.308,0,0,0,.229-.571l-.617-.308a.308.308,0,0,0-.431.373l.5,1.489a.307.307,0,0,1-.074.316l-.055.055a.265.265,0,0,1-.305.049.922.922,0,0,0-.641-.064,10.637,10.637,0,0,0-.377-2.657.308.308,0,0,0-.585.2,10.6,10.6,0,0,1,.353,2.692l-.369.148v-1.7a.771.771,0,1,0-1.542,0v1.493l-.315-1.554a.308.308,0,1,0-.6.122Z" transform="translate(-102.114 -165.435)" fill="#f5f5f5"/><path d="M109.468,163.519a.308.308,0,0,0,.308-.308V162.9a.308.308,0,0,0-.617,0v.308A.308.308,0,0,0,109.468,163.519Z" transform="translate(-108.457 -162.266)" fill="#f5f5f5"/><path d="M144.265,163.211h.308a.308.308,0,0,0,0-.617h-.308a.308.308,0,0,0,0,.617Z" transform="translate(-140.169 -162.266)" fill="#f5f5f5"/><path d="M107.371,214.834l-1.542.925a.308.308,0,1,0,.317.529l1.542-.925a.308.308,0,1,0-.317-.529Z" transform="translate(-105.284 -209.836)" fill="#f5f5f5"/><path d="M120.972,170.981l.007,0a.7.7,0,0,0,.142.29.606.606,0,0,0,.526.2.851.851,0,0,0,.642-.337.561.561,0,0,0,.065.039.584.584,0,0,0,.543-.018,1.171,1.171,0,0,0,.552-1.086.315.315,0,0,0-.321-.292.309.309,0,0,0-.3.32s.007.37-.217.506a.751.751,0,0,1-.1-.26.308.308,0,0,0-.613.051c0,.045-.01.441-.316.474a.753.753,0,0,1,0-.4.308.308,0,0,0-.474-.326l-.172.117c-.082-1.789-.27-3.873-.272-3.9a.308.308,0,1,0-.614.056c0,.029.22,2.44.288,4.282l-.047.046a.8.8,0,0,0-.675-.531,1.126,1.126,0,0,0-1.086.687.729.729,0,0,0,.236.92,1.028,1.028,0,0,0,.92.042,2.579,2.579,0,0,1-.5.951,1.294,1.294,0,0,1-.985.5.81.81,0,0,1-.6-.255,1.761,1.761,0,0,1-.326-1.1.308.308,0,0,0-.291-.324.3.3,0,0,0-.325.291,2.366,2.366,0,0,0,.484,1.55,1.415,1.415,0,0,0,1.033.458h.062a1.879,1.879,0,0,0,1.415-.718,3.19,3.19,0,0,0,.706-1.581,3.5,3.5,0,0,1-1.48,2.769,1.54,1.54,0,0,1-1.545.113,1.323,1.323,0,0,1-.679-1.3.308.308,0,0,0-.612-.077,1.937,1.937,0,0,0,1.018,1.934,2.1,2.1,0,0,0,.934.223,2.282,2.282,0,0,0,1.21-.365,4.1,4.1,0,0,0,1.771-3.3C120.982,171.426,120.979,171.209,120.972,170.981Zm-1.86.318c-.055-.037-.012-.153,0-.176a.524.524,0,0,1,.43-.3h.025c.039,0,.144.014.189.246,0,.025.009.05.012.076C119.422,171.344,119.192,171.351,119.113,171.3Z" transform="translate(-114.727 -165.437)" fill="#f5f5f5"/><path d="M102.393,243.91a.309.309,0,0,0-.422.109.634.634,0,0,1-.052.073l-.01-.025a2.074,2.074,0,0,1,.009-1.046.308.308,0,0,0-.6-.159,2.656,2.656,0,0,0,.009,1.422c.142.377.359.472.516.485l.042,0a.81.81,0,0,0,.614-.441A.308.308,0,0,0,102.393,243.91Z" transform="translate(-101.226 -235.212)" fill="#f5f5f5"/><path d="M175.438,165.371a.306.306,0,0,0,.19-.066l1.555-1.221a.3.3,0,0,0,.051-.06.772.772,0,1,0-.886-.068l-1.1.864a.308.308,0,0,0,.191.551Zm1.4-2.159a.154.154,0,1,1-.154.154A.154.154,0,0,1,176.839,163.212Z" transform="translate(-168.579 -162.267)" fill="#f5f5f5"/><path d="M185.6,190.448a.308.308,0,0,0-.39.195.942.942,0,0,0,.12.91.622.622,0,0,0,.461.176,1.355,1.355,0,0,0,.426-.079.308.308,0,1,0-.2-.585,1.068,1.068,0,0,1-.252.054.59.59,0,0,1,.025-.282A.308.308,0,0,0,185.6,190.448Z" transform="translate(-177.71 -187.637)" fill="#f5f5f5"/><path d="M227.838,163.669a.309.309,0,0,0,.383-.21l.18-.617a.308.308,0,0,0-.592-.173l-.18.617A.308.308,0,0,0,227.838,163.669Z" transform="translate(-216.413 -162.133)" fill="#f5f5f5"/><path d="M206.148,160.4a.308.308,0,1,0,.311-.532c-.062-.036-.054-.138-.051-.158a.242.242,0,0,1,.142-.206.309.309,0,0,0-.183-.589.847.847,0,0,0-.571.725A.76.76,0,0,0,206.148,160.4Z" transform="translate(-196.522 -158.898)" fill="#f5f5f5"/><path d="M179.062,232.19a.308.308,0,0,0-.058.611.579.579,0,0,1,.058.314.308.308,0,1,0,.617,0C179.679,232.2,179.088,232.19,179.062,232.19Z" transform="translate(-171.882 -225.694)" fill="#f5f5f5"/><path d="M235.037,208.712a.71.71,0,0,0,.116.009,1.054,1.054,0,0,0,.73-.365.308.308,0,0,0-.436-.436c-.184.185-.284.189-.309.183-.059-.008-.112-.085-.124-.106a.308.308,0,0,0-.55.279A.834.834,0,0,0,235.037,208.712Z" transform="translate(-222.624 -203.493)" fill="#f5f5f5"/><path d="M294.191,191.038l-.005-.014a.308.308,0,0,0-.584.2.691.691,0,0,0,.5.481.515.515,0,0,0,.068,0,.755.755,0,0,0,.6-.412.308.308,0,1,0-.513-.342A.936.936,0,0,1,294.191,191.038Z" transform="translate(-276.536 -187.987)" fill="#f5f5f5"/><path d="M207.96,174.086c0-1.315-.058-2.549-.138-3.63a15.617,15.617,0,0,1,1.083,2.2.308.308,0,1,0,.578-.217,20.427,20.427,0,0,0-1.784-3.381c-.169-1.661-.357-2.716-.361-2.735a.308.308,0,0,0-.607.11c0,.013.1.557.216,1.471-.237-.352-.457-.669-.642-.93l.015,0a.308.308,0,1,0,.2-.585l-.925-.308a.307.307,0,0,0-.348.112.311.311,0,0,0-.045.094.673.673,0,0,0-.644-.154.525.525,0,0,0-.295.549,2.786,2.786,0,0,0,.213.874c.182.514.3.893.1,1.073a.337.337,0,0,1-.316.111c-.19-.048-.378-.3-.5-.678a.288.288,0,0,0-.025-.043,5.245,5.245,0,0,0-.094-1.706.308.308,0,1,0-.6.121,2.936,2.936,0,0,1-.162,2.2.554.554,0,0,1-.461.209.177.177,0,0,1-.148-.069,2.972,2.972,0,0,1-.164-1.739.309.309,0,0,0-.305-.352c-.531,0-.732.6-.909,1.136-.078.234-.223.669-.324.714-.187,0-.307-.548-.308-.926a.309.309,0,0,0-.308-.308h0a.308.308,0,0,0-.308.308c0,.711.242,1.542.925,1.542.509,0,.715-.554.887-1.069a1.933,1.933,0,0,0,.35,1.1.791.791,0,0,0,.614.282,1.173,1.173,0,0,0,.938-.435,1.417,1.417,0,0,0,.115-.17,1.151,1.151,0,0,0,.646.485.89.89,0,0,0,.218.028.978.978,0,0,0,.672-.287.916.916,0,0,0,.1-.124.832.832,0,0,0,.228.034,1.248,1.248,0,0,0,.64-.2.308.308,0,0,0-.331-.52.654.654,0,0,1-.349.092,3.182,3.182,0,0,0-.234-1.014,4.278,4.278,0,0,1-.16-.516c.025.021.05.044.072.065a.308.308,0,0,0,.436,0,.3.3,0,0,0,.045-.067c.32.44.977,1.366,1.654,2.433.129,1.311.242,2.984.242,4.819a.308.308,0,0,0,.617,0Z" transform="translate(-190.91 -165.431)" fill="#f5f5f5"/><path d="M293.895,167.31a.308.308,0,1,0,.617,0,3.145,3.145,0,0,0-.341-1.063.308.308,0,1,0-.552.276A2.74,2.74,0,0,1,293.895,167.31Z" transform="translate(-276.536 -165.44)" fill="#f5f5f5"/><path d="M263.952,250.239a.308.308,0,0,0-.414.136.886.886,0,0,1-.128.183,1.724,1.724,0,0,1,.081-.57.309.309,0,0,0-.513-.309l-.617.617a.308.308,0,0,0,.436.436l.016-.016a.638.638,0,0,0,.165.324.565.565,0,0,0,.4.177.548.548,0,0,0,.085-.007,1,1,0,0,0,.625-.558A.308.308,0,0,0,263.952,250.239Z" transform="translate(-247.997 -241.55)" fill="#f5f5f5"/><path d="M175.029,206.527h-2.174q.029-.115.059-.22c.867-.18,1.382-.46,1.534-.833a.689.689,0,0,0-.116-.692.765.765,0,0,0-.78-.333c-.438.089-.829.561-1.109,1.317a3.547,3.547,0,0,0-1.781.77,4.778,4.778,0,0,0-.64-2.05.308.308,0,0,0-.513.342,4.454,4.454,0,0,1,.565,2.3,2.441,2.441,0,0,1-1.851,2.467c-.346,0-.5-.412-.565-.76a3.542,3.542,0,0,0,1.481-1.633,2.453,2.453,0,0,0-.205-1.672l-.023-.054.019.018a.308.308,0,0,0,.436-.436c-.18-.18-.53-.464-.849-.331a.525.525,0,0,0-.295.549,1.312,1.312,0,0,0,.144.5,1.864,1.864,0,0,1,.174,1.28,2.61,2.61,0,0,1-1.01,1.114.3.3,0,0,0-.233-.113h0a.308.308,0,0,0-.308.308c0,.056,0,.115.006.176a16.22,16.22,0,0,1-1.984,1.086.308.308,0,0,0,.128.589.3.3,0,0,0,.127-.028,17.771,17.771,0,0,0,1.842-.986,1.2,1.2,0,0,0,1.115,1.014,2.62,2.62,0,0,0,2.064-1.508,1.79,1.79,0,0,0,.206.294,3.476,3.476,0,0,0,2.357.905.308.308,0,0,0,.022-.616.66.66,0,0,1-.385-.187.529.529,0,0,1-.1-.405c.032-.38,1.258-.664,2.338-.681a.309.309,0,0,0,.286-.205l.308-.867a.309.309,0,0,0-.29-.412Zm-1.354-1.473a.114.114,0,0,1,.023,0c.03,0,.076.014.138.1.012.016.049.069.04.093-.035.087-.248.232-.692.362C173.38,205.224,173.571,205.075,173.675,205.054Zm-1.863,4.054a1.888,1.888,0,0,1-.854-.519,1.311,1.311,0,0,1-.274-1.086.9.9,0,0,1,.064-.131c.434-.04,1.595.131,1.675.464a1.036,1.036,0,0,0-.652.8A1.3,1.3,0,0,0,171.813,209.109Z" transform="translate(-159.194 -200.32)" fill="#f5f5f5"/><path d="M292.559,167.207l-.308-.925a.308.308,0,0,0-.6.128c.213,2.128.615,6.279.615,6.755,0,.427-.76,1.269-1.989,1.883a.308.308,0,0,0,.276.552c1.122-.561,2.329-1.562,2.329-2.435,0-.456-.315-3.735-.5-5.576A.309.309,0,0,0,292.559,167.207Z" transform="translate(-273.366 -165.435)" fill="#f5f5f5"/><path d="M336.361,194.734a.308.308,0,0,0,.517-.294,1.558,1.558,0,0,1-.044-.6.313.313,0,0,0,.321-.264.308.308,0,0,0-.262-.349.557.557,0,0,0-.508.171.706.706,0,0,0-.155.331l-.357-.357a.308.308,0,1,0-.436.436Z" transform="translate(-314.595 -190.179)" fill="#f5f5f5"/><path d="M341.414,213.322l-1.157.829a.308.308,0,1,0,.359.5l1.157-.829a.308.308,0,1,0-.359-.5Z" transform="translate(-318.954 -208.445)" fill="#f5f5f5"/><path d="M352.807,225.782a.308.308,0,0,0,.027.409.855.855,0,0,1,.063.444.308.308,0,0,0,.3.319h.011a.308.308,0,0,0,.308-.3c.022-.629-.184-.86-.273-.929A.308.308,0,0,0,352.807,225.782Z" transform="translate(-330.449 -219.745)" fill="#f5f5f5"/><path d="M326.954,173.749a.308.308,0,0,0,.308-.308c0-.455-.023-.963-.062-1.492a11.25,11.25,0,0,1,.723,1.343.308.308,0,0,0,.284.187.3.3,0,0,0,.121-.025.308.308,0,0,0,.162-.4,16.969,16.969,0,0,0-1.411-2.433c-.121-1.132-.279-2.241-.4-3.037a.3.3,0,0,0,.193-.048.174.174,0,1,1,.171-.19,1.122,1.122,0,0,1,.112.755.308.308,0,0,0,.24.364.325.325,0,0,0,.063.006.309.309,0,0,0,.3-.246,1.748,1.748,0,0,0-.2-1.211.309.309,0,0,0-.426-.095.305.305,0,0,0-.138.279.3.3,0,0,0-.035-.089l-.521-.81a.308.308,0,0,0-.563.22c0,.024.24,1.378.449,3.009-.236-.334-.473-.66-.7-.972-.037-.467-.075-.9-.107-1.255a.314.314,0,0,0,.05-.02.308.308,0,0,0,.138-.414l-.308-.617a.308.308,0,0,0-.583.169c.037.368.075.776.113,1.2-.2-.257-.376-.493-.53-.692a.309.309,0,0,0-.063-.51l-.617-.308a.308.308,0,0,0-.379.469c.017.021.776.973,1.685,2.2a24.8,24.8,0,0,1,.114,4.6c-.027.081-.074.177-.119.18-.186.026-.631-.391-.855-.838a.429.429,0,0,0-.413-.28c-.331.02-.461.385-.7,1.047a4.342,4.342,0,0,1-.613,1.305,3.5,3.5,0,0,1-.384-1.214.307.307,0,0,0,.6-.1c0-.46-.322-3.963-.5-5.883a.308.308,0,0,0,.177-.383l-.308-.925a.308.308,0,0,0-.6.127c.21,2.2.6,6.45.615,7.037l0-.016a.308.308,0,1,0-.611.087c.09.63.32,1.714.85,1.891a.514.514,0,0,0,.164.027.606.606,0,0,0,.434-.2,4.448,4.448,0,0,0,.764-1.541c.045-.128.1-.279.15-.408.283.413.777.928,1.277.887a.757.757,0,0,0,.66-.6,17.372,17.372,0,0,0-.011-3.851c.26.364.52.737.768,1.105.1.924.165,1.849.165,2.609A.309.309,0,0,0,326.954,173.749Z" transform="translate(-301.904 -165.441)" fill="#f5f5f5"/><path d="M383.738,172.52c-.218-1.628-.523-3.513-.716-4.67a.3.3,0,0,0,.258-.055.308.308,0,0,0,.058-.432l-.559-.733a.308.308,0,0,0-.549.24c.006.032.556,3.2.9,5.732a2.891,2.891,0,0,1-.508,2.314,1.364,1.364,0,0,1-1.131.422.308.308,0,1,0-.039.616c.052,0,.1,0,.154,0a1.947,1.947,0,0,0,1.467-.622A3.444,3.444,0,0,0,383.738,172.52Z" transform="translate(-356.347 -165.835)" fill="#f5f5f5"/><path d="M371.1,256.232a.313.313,0,0,0,.015.434.13.13,0,0,1,.037.064.144.144,0,0,1-.047.069.308.308,0,1,0,.436.436.7.7,0,0,0,.227-.526.734.734,0,0,0-.242-.5A.306.306,0,0,0,371.1,256.232Z" transform="translate(-347.1 -247.513)" fill="#f5f5f5"/><path d="M163.08,327.238h-2.159v-.308a.308.308,0,1,0-.617,0v.308H143.957a4.306,4.306,0,0,0,2.776.925H160.3v.617a.308.308,0,0,0,.308.308h2.467a.925.925,0,1,0,0-1.851Zm0,1.234h-2.159v-.308h2.467l-.055-.166a.3.3,0,0,1,.055.166A.309.309,0,0,1,163.08,328.472Z" transform="translate(-140.169 -311.755)" fill="#f5f5f5"/></g></g></svg>