<svg xmlns="http://www.w3.org/2000/svg" width="24" height="18" viewBox="0 0 24 18"><g transform="translate(0 -6)"><path d="M23,6H1A1,1,0,0,0,0,7V23a1,1,0,0,0,1,1H23a1,1,0,0,0,1-1V7A1,1,0,0,0,23,6Z" transform="translate(0 0)" fill="#002781"/><path d="M24,7a1,1,0,0,0-1-1h-2.58L14,10.938V6H10v4.938L3.58,6H1A1,1,0,0,0,0,7V8.293L6.119,13H0v4H6.119L0,21.707V23a1,1,0,0,0,1,1H3.58L10,19.062V24h4V19.062L20.419,24H23a1,1,0,0,0,1-1V21.707L17.88,17H24V13H17.88L24,8.293Z" transform="translate(0 0)" fill="#e6e6e6"/><path d="M24,14H13V6H11v8H0v2H11v8h2V16H24Z" transform="translate(0 0)" fill="#d10d24"/><path d="M10.791,27.723,1.582,34.839a1.026,1.026,0,0,0,.209.022H2.984l7.807-6.033Z" transform="translate(-0.791 -10.862)" fill="#d10d24"/><path d="M28,13.138l9.209-7.116A1.029,1.029,0,0,0,37,6H35.807L28,12.033Z" transform="translate(-14)" fill="#d10d24"/><path d="M9,13.281.307,6.562A1,1,0,0,0,0,7.281v.15l7.572,5.85Z" transform="translate(0 -0.281)" fill="#d10d24"/><path d="M29.994,28l8.7,6.719A1,1,0,0,0,39,34v-.15L31.425,28Z" transform="translate(-14.997 -11)" fill="#d10d24"/></g></svg>