<svg xmlns="http://www.w3.org/2000/svg" width="24" height="18" viewBox="0 0 24 18"><g transform="translate(-0.119 -6)"><path d="M24,7a1,1,0,0,0-1-1H10V16H0v7a1,1,0,0,0,1,1H23a1,1,0,0,0,1-1Z" transform="translate(0.119)" fill="#b41f30"/><rect width="14.516" height="2.516" transform="translate(9.603 7.452)" fill="#e6e6e6"/><rect width="14.516" height="1.258" transform="translate(9.603 12.484)" fill="#e6e6e6"/><path d="M0,26v2H24V26H0Z" transform="translate(0.119 -10)" fill="#e6e6e6"/><rect width="24" height="2.516" transform="translate(0.119 20.032)" fill="#e6e6e6"/><path d="M10,16H0V7A1,1,0,0,1,1,6h9Z" transform="translate(0.119)" fill="#00256a"/><path d="M8.931,13.922l-.316.684H7.863l.55.57L8.21,16l.721-.409L9.653,16l-.2-.824.55-.57H9.247Z" transform="translate(-3.813 -3.961)" fill="#fff"/><path d="M4.039,9.029l-.316.684H2.971l.55.57-.2.824.721-.409.722.409-.2-.824.55-.57H4.354Z" transform="translate(-1.367 -1.514)" fill="#fff"/><path d="M13.824,9.029l.316.684h.752l-.549.57.2.824-.722-.409-.722.409.2-.824-.55-.57h.753Z" transform="translate(-6.259 -1.514)" fill="#fff"/><path d="M4.039,20.893l-.316-.684H2.971l.55-.57-.2-.824.721.409.722-.409-.2.824.55.57H4.354Z" transform="translate(-1.367 -6.408)" fill="#fff"/><path d="M13.824,20.893l.316-.684h.752l-.549-.57.2-.824-.722.409-.722-.409.2.824-.55.57h.753Z" transform="translate(-6.259 -6.408)" fill="#fff"/></g></svg>