<svg xmlns="http://www.w3.org/2000/svg" xmlns:xlink="http://www.w3.org/1999/xlink" width="147.922" height="114" viewBox="0 0 147.922 114"><defs><filter id="a" x="33.922" y="0" width="114" height="114" filterUnits="userSpaceOnUse"><feOffset dy="3" input="SourceAlpha"/><feGaussianBlur stdDeviation="12" result="b"/><feFlood flood-opacity="0.102"/><feComposite operator="in" in2="b"/><feComposite in="SourceGraphic"/></filter></defs><g transform="translate(-779.078 2265.534)"><path d="M93.774,1.734a3.06,3.06,0,0,0-2.986-.566L2.061,31.763A3.06,3.06,0,0,0,1.223,37.1L20.14,51.292l33.823-19.7L27.535,56.836v32.89a3.06,3.06,0,0,0,1.8,2.784,3.008,3.008,0,0,0,1.264.275,3.06,3.06,0,0,0,2.016-.756l19.315-16.9L74.652,92.174A3.06,3.06,0,0,0,79.5,90.265L94.8,4.6a3.06,3.06,0,0,0-1.022-2.864Z" transform="translate(779.078 -2260.427)" fill="#e10600"/><g transform="matrix(1, 0, 0, 1, 779.08, -2265.53)" filter="url(#a)"><circle cx="21" cy="21" r="21" transform="translate(69.92 33)" fill="#fff"/></g><path d="M6,17.02v1.366H17.988V17.02A4.188,4.188,0,0,0,17.35,14.8l-2.252-3.6,2.252-3.6a4.188,4.188,0,0,0,.638-2.224V4H6V5.366A4.188,4.188,0,0,0,6.638,7.59l2.252,3.6L6.638,14.8A4.188,4.188,0,0,0,6,17.02Z" transform="translate(858.005 -2222.726)" fill="#e10600"/><path d="M17.786,1.2H4.6A.6.6,0,0,1,4.6,0H17.786a.6.6,0,1,1,0,1.2Z" transform="translate(858.807 -2221.124)" fill="#e10600"/><path d="M17.786,31.2H4.6a.6.6,0,1,1,0-1.2H17.786a.6.6,0,1,1,0,1.2Z" transform="translate(858.807 -2233.142)" fill="#e10600"/></g></svg>