<svg xmlns="http://www.w3.org/2000/svg" width="18.187" height="18.268" viewBox="0 0 18.187 18.268"><g transform="translate(3083.343 -1339.899)"><path d="M.054,18.268l1.285-4.691a9.056,9.056,0,1,1,7.847,4.534h0a9.051,9.051,0,0,1-4.327-1.1Zm5.023-2.9.275.163a7.516,7.516,0,0,0,3.831,1.049h0a7.525,7.525,0,1,0-6.376-3.526l.179.285-.76,2.776Z" transform="translate(-3083.396 1339.899)" fill="#9bdf6e"/><path d="M8.343,6.8c-.184-.441-.37-.381-.509-.388S7.551,6.4,7.4,6.4a.831.831,0,0,0-.6.283A2.537,2.537,0,0,0,6.005,8.57a4.4,4.4,0,0,0,.924,2.34,10.085,10.085,0,0,0,3.865,3.415,13.028,13.028,0,0,0,1.29.476,3.1,3.1,0,0,0,1.425.09,2.33,2.33,0,0,0,1.527-1.076,1.89,1.89,0,0,0,.132-1.076c-.057-.094-.207-.151-.434-.264s-1.339-.66-1.546-.736-.358-.113-.509.113-.584.736-.716.887-.264.17-.49.057a6.18,6.18,0,0,1-1.82-1.123,6.817,6.817,0,0,1-1.259-1.567c-.132-.226-.014-.349.1-.462s.226-.264.339-.4a1.543,1.543,0,0,0,.226-.377.416.416,0,0,0-.019-.4C8.984,8.362,8.532,7.249,8.343,6.8Z" transform="translate(-3084.818 1338.37)" fill="#9bdf6e" fill-rule="evenodd"/></g></svg>