<svg xmlns="http://www.w3.org/2000/svg" width="21.853" height="21.98" viewBox="0 0 21.853 21.98"><path d="M18.683,3.16A10.575,10.575,0,0,0,10.99,0,10.966,10.966,0,0,0,.137,10.853a11.013,11.013,0,0,0,1.511,5.5L0,21.98l5.77-1.511a11.828,11.828,0,0,0,5.22,1.374h0A10.876,10.876,0,0,0,21.843,10.99,10.36,10.36,0,0,0,18.683,3.16ZM16.348,14.837a2.546,2.546,0,0,1-1.786,1.236,6.117,6.117,0,0,1-3.3-.687,13.037,13.037,0,0,1-4.671-4.121A5.233,5.233,0,0,1,5.5,8.517a3.371,3.371,0,0,1,.962-2.335,1.316,1.316,0,0,1,1.923.137A10.577,10.577,0,0,0,9.2,8.38a.749.749,0,0,1-.275.962c-.137,0-.824.55-.55.962a9.3,9.3,0,0,0,1.511,1.923,7.682,7.682,0,0,0,2.2,1.374c.275.137.412.137.55-.137a7.62,7.62,0,0,0,.824-1.1.34.34,0,0,1,.55-.137c.137.137,1.649.687,1.923.824.275.275.55.275.55.412C16.623,13.6,16.623,14.15,16.348,14.837Z" fill="#fff"/></svg>